<svg height="32" viewBox="0 0 32 32" width="32" xmlns="http://www.w3.org/2000/svg"><path d="m16 0c-8.84 0-16 7.16-16 16s7.16 16 16 16 16-7.16 16-16-7.16-16-16-16zm-5.26 3.18c.88-.4 1.81-.68 2.78-.84.96-.18 1.89-.23 2.87-.23.97.02 1.96.16 2.93.43.96.27 1.93.74 2.73 1.28 1.64 1.08 3.05 2.54 4 4.28.96 1.75 1.4 3.71 1.42 5.61s-.32 3.8-1.12 5.53c-.42.85-.95 1.65-1.61 2.31-.67.66-1.48 1.16-2.34 1.43.73-.52 1.34-1.16 1.8-1.87.45-.72.79-1.49.99-2.31.45-1.61.48-3.32.29-4.96-.2-1.64-.69-3.2-1.52-4.53-.82-1.34-1.97-2.49-3.3-3.35-.68-.45-1.32-.77-2.07-1-.73-.24-1.51-.37-2.31-.43-.79-.06-1.65-.05-2.45.04-.8.08-1.59.23-2.37.49-3.13.99-5.88 3.29-7.9 6.24 1.06-3.44 3.65-6.55 7.18-8.12zm11.14 12.82c0 3.25-2.63 5.88-5.88 5.88s-5.88-2.63-5.88-5.88 2.63-5.88 5.88-5.88 5.88 2.63 5.88 5.88zm-1.11 12.38c-.88.4-1.81.68-2.78.84-.96.18-1.89.23-2.87.23-.97-.02-1.96-.16-2.93-.43-.96-.27-1.93-.74-2.73-1.28-1.64-1.08-3.05-2.54-4-4.28-.96-1.75-1.4-3.71-1.42-5.61s.32-3.8 1.12-5.53c.42-.85.95-1.65 1.61-2.31.67-.66 1.48-1.16 2.34-1.43-.73.52-1.34 1.16-1.8 1.87-.45.72-.79 1.49-.99 2.31-.45 1.61-.48 3.32-.29 4.96.2 1.64.69 3.2 1.52 4.53.82 1.34 1.97 2.49 3.3 3.35.68.45 1.32.77 2.07 1 .73.24 1.51.37 2.31.43.79.06 1.65.05 2.45-.04.8-.08 1.59-.23 2.37-.49 3.13-.99 5.88-3.29 7.9-6.24-1.05 3.43-3.64 6.54-7.18 8.12z" fill="#a371c2"/></svg>